<svg width="48" height="29" viewBox="0 0 48 29" fill="none" xmlns="http://www.w3.org/2000/svg">
<g clip-path="url(#clip0_94_2)">
<path d="M47.5309 6.64927C47.2724 6.12654 46.9249 5.64921 46.5028 5.23706C46.418 5.15784 46.3271 5.08496 46.2309 5.01904C46.1584 4.9649 46.0829 4.9147 46.0046 4.86869H45.9884L45.968 4.85712C45.8834 4.81285 45.7964 4.77289 45.7075 4.73741H45.6847C45.4613 4.65238 45.2232 4.60863 44.983 4.60845H44.8834C44.6193 4.62465 44.3618 4.69289 44.1271 4.8097C43.8496 4.95167 43.5948 5.13166 43.3709 5.34405H43.3571L43.3432 5.35735C43.3345 5.36707 43.3246 5.37581 43.3138 5.38337L43.2706 5.4227C43.117 5.56207 42.9627 5.713 42.7838 5.88938L42.6572 6.01661C42.4966 6.17148 42.3374 6.32762 42.1794 6.48503C42.2287 5.66038 42.2815 4.81606 42.3241 3.97811C42.3241 3.87112 42.3355 3.76009 42.3445 3.65484C42.3763 3.28878 42.3841 2.9204 42.3673 2.55318V2.46355C42.3445 2.04486 42.3085 1.41394 41.8751 0.87323C41.557 0.470734 40.922 0 39.7132 0C39.4396 0.0017784 39.1665 0.021486 38.8957 0.0589864C38.4508 0.119856 38.0121 0.216973 37.5842 0.349292C36.2391 0.774919 35.4625 1.43996 35.2674 2.34384C35.1246 3.01351 35.3808 3.59643 35.5483 3.98216L35.5843 4.06543C35.7362 4.40374 35.9108 4.73163 36.1077 5.04738L36.271 5.32901C36.6876 6.05916 37.1096 6.78648 37.5368 7.51093L36.8886 7.29291L36.7235 7.23624C36.4834 7.15123 36.271 7.07894 36.0735 7.01764L36.0195 7.00261L35.9811 6.99162H35.9444C35.6461 6.89534 35.3346 6.84176 35.0201 6.83259H34.9709C34.7227 6.83157 34.4769 6.87898 34.2482 6.97196C33.995 7.07489 33.7681 7.22872 33.582 7.42361C33.5201 7.49408 33.4612 7.567 33.4055 7.6422L33.3923 7.65955L33.3785 7.67921C33.2641 7.84691 33.1706 8.02705 33.1 8.21587V8.22917C32.9078 8.77491 32.812 9.34787 32.8167 9.92416C32.2393 7.74225 30.3463 6.12938 28.1129 6.12938C27.3022 6.13188 26.5067 6.3414 25.8075 6.73659C25.4134 6.41547 24.9179 6.23262 24.4021 6.21791C23.8862 6.20321 23.3804 6.35752 22.9673 6.65563V5.50771C22.9533 4.92946 22.7072 4.37895 22.2806 3.97201C21.8539 3.56507 21.2801 3.33342 20.6799 3.32579C20.0714 3.32793 19.4888 3.56262 19.0598 3.97833C18.6308 4.39403 18.3906 4.95677 18.3919 5.54298V7.92788C18.3348 7.85553 18.2737 7.78622 18.2088 7.72027C17.5502 7.05557 16.7212 6.57005 15.8055 6.3127C14.8834 6.06272 13.9075 6.06352 12.9858 6.31501H12.9611C12.218 6.50258 11.5308 6.85533 10.9546 7.34496C10.7727 6.97648 10.4856 6.66551 10.127 6.44841C9.76839 6.23131 9.35305 6.11704 8.92953 6.11897C8.71465 6.11897 8.50158 6.14904 8.2957 6.20802C7.1631 6.53765 6.70995 7.59825 6.43385 8.23091C6.40864 8.2899 6.38583 8.34483 6.36182 8.39688C6.2934 8.55418 6.22798 8.69355 6.17576 8.80516C6.12312 8.91327 6.07467 9.02322 6.03051 9.13479C5.9987 9.2198 5.97169 9.27821 5.94047 9.35281C5.75145 8.98307 5.56038 8.6143 5.36727 8.24652L5.25323 8.01521C4.96813 7.42534 4.54018 6.53997 3.47601 6.23C2.94549 6.07381 2.37366 6.11305 1.87148 6.34012C1.3693 6.56719 0.972563 6.9659 0.758249 7.45888C0.243868 8.63051 0.882493 9.66451 1.22461 10.2191C1.4695 10.6123 1.78401 11.1328 2.07871 11.6747C2.20476 11.8927 2.25278 11.9846 2.53127 12.5057L2.57209 12.578L2.92561 13.2326C3.00964 13.383 3.10207 13.5553 3.21071 13.7565C3.32655 13.9746 3.458 14.2099 3.60265 14.4719C3.57804 14.5049 3.55283 14.5396 3.52342 14.5725L3.50302 14.5962L3.4712 14.5812C3.24534 14.4706 3.00571 14.3884 2.75815 14.3366C2.58358 14.2976 2.40497 14.2778 2.22577 14.2776C1.83369 14.2774 1.44849 14.3768 1.1089 14.5656C0.769316 14.7544 0.487323 15.0261 0.291285 15.3532C0.0954408 15.6828 -0.00508074 16.0569 0.00019767 16.4366C0.00547608 16.8163 0.116361 17.1876 0.321295 17.512C1.00013 18.6027 2.38422 19 3.4604 19C3.7455 19.0011 4.0306 18.9728 4.3091 18.915C6.72615 18.4089 7.77232 16.1652 8.53579 14.5268L8.68944 14.1972C8.84687 13.8495 9.01076 13.5046 9.18102 13.1626L9.33287 12.8417C9.48725 13.3192 9.71376 13.7723 10.0051 14.1862C10.1852 14.4441 10.3862 14.6876 10.6077 14.9131C10.8328 15.1346 11.0777 15.3365 11.3394 15.5175C11.6035 15.6944 11.8856 15.8471 12.1797 15.9732C12.4798 16.1085 12.7937 16.2103 13.1172 16.2791C13.3153 16.3259 13.5169 16.3618 13.7198 16.3855C13.9059 16.4046 14.0919 16.4127 14.2792 16.4098H14.4443C15.1151 16.4105 15.7811 16.2997 16.413 16.0825C16.7035 15.9899 16.985 15.8714 17.2533 15.7291C17.7302 15.4622 18.1218 15.0741 18.3853 14.6072C18.455 15.1396 18.7231 15.6294 19.1397 15.9854C19.5563 16.3415 20.093 16.5396 20.6499 16.5428C21.1402 16.5428 21.6168 16.3895 22.0093 16.1062V16.7961C22.0093 17.3806 22.2503 17.9412 22.6793 18.3545C23.1083 18.7678 23.6901 19 24.2967 19C24.9034 19 25.4852 18.7678 25.9142 18.3545C26.3432 17.9412 26.5841 17.3806 26.5841 16.7961V16.1941C27.0667 16.356 27.5745 16.4387 28.0859 16.4381C30.7718 16.4381 32.9572 14.1336 32.962 11.3011C33.0172 11.4728 33.0934 11.6377 33.1883 11.7926C33.3323 12.0112 33.5208 12.1992 33.7435 12.3443C34.0633 12.55 34.437 12.6643 34.8214 12.674H34.9979C35.297 12.6671 35.5941 12.6261 35.8832 12.5519H35.9312L37.1833 12.279C36.9864 12.541 36.7937 12.796 36.6083 13.0493L36.5038 13.191C36.3526 13.3916 36.2229 13.5686 36.1077 13.7386L36.0759 13.7866L36.0531 13.8196L36.0423 13.8346V13.8502C35.8627 14.102 35.7222 14.3777 35.6251 14.6685C35.5459 14.9147 35.5213 15.1742 35.5531 15.4301C35.5879 15.6915 35.6809 15.9431 35.8244 16.1675V16.1785C35.8766 16.2571 35.9354 16.3334 35.9943 16.3965L36.0081 16.4098L36.0195 16.4248C36.0825 16.4971 36.1527 16.5648 36.2235 16.6301C36.3064 16.7093 36.3958 16.7822 36.4906 16.8487C36.9384 17.1436 37.4282 17.375 37.9443 17.5357C38.3843 17.6768 38.8411 17.7613 39.3032 17.7867H39.4353C39.5109 17.7875 39.5864 17.7838 39.6616 17.7757C39.7558 17.7682 39.8494 17.756 39.9418 17.7387H39.9827C40.0775 17.7173 40.1717 17.6907 40.2636 17.6601H40.2774C40.5314 17.5691 40.7629 17.4279 40.9568 17.2454C41.143 17.0626 41.2886 16.8452 41.3848 16.6064C41.4943 16.3202 41.56 16.0202 41.5798 15.7158V15.6765C41.5811 15.6634 41.5811 15.6502 41.5798 15.6372V15.5869C41.5996 15.3688 41.6092 15.1682 41.62 14.9322V14.5968L41.6975 14.7316L41.7857 14.8912C41.9081 15.1092 42.012 15.2925 42.1206 15.4671L42.1482 15.5105L42.1728 15.5498V15.5631L42.1848 15.5805C42.3583 15.8396 42.5702 16.072 42.8139 16.2721C43.0089 16.4485 43.24 16.5833 43.4933 16.6671H43.5071C43.7034 16.7307 43.9092 16.7631 44.1163 16.7631C44.1805 16.7631 44.2448 16.7591 44.3084 16.7521H44.3294C44.4266 16.7417 44.5233 16.7261 44.6193 16.7041H44.6595C44.7525 16.681 44.8444 16.6515 44.9338 16.6174C45.0406 16.5786 45.1439 16.5324 45.2441 16.4797C45.6494 16.2616 46.0227 15.9922 46.3539 15.6788C46.7449 15.3162 47.0804 14.9018 47.3503 14.4482C47.4544 14.2674 47.5337 14.0744 47.5861 13.8739V13.8369C47.6085 13.7464 47.6251 13.6547 47.636 13.5622V13.5333C47.6615 13.274 47.6306 13.0125 47.5453 12.7653C47.456 12.5211 47.3138 12.298 47.1282 12.1107C46.9088 11.8912 46.658 11.7031 46.3833 11.5521H46.3671L46.3491 11.5417L46.3131 11.522L46.2675 11.4931C46.0868 11.3907 45.8851 11.2751 45.6721 11.175L45.4956 11.0831C45.2142 10.9317 44.9294 10.7862 44.6415 10.6465L45.8827 10.3695H45.9308C46.2833 10.3053 46.6231 10.1882 46.9379 10.0225C47.2786 9.85153 47.5622 9.59132 47.756 9.27185C47.8832 9.0492 47.9607 8.80342 47.9823 8.54955C48.0819 7.76191 47.738 7.06564 47.5321 6.64927H47.5309Z" fill="white" fill-opacity="0.96"/>
<path d="M38.175 10.9251L38.9222 10.7585C38.9378 10.755 38.9642 10.7493 38.9954 10.7394C39.2018 10.6861 39.3787 10.5577 39.4888 10.3812C39.5988 10.2047 39.6335 9.99396 39.5855 9.79334L39.5824 9.78062C39.5577 9.6845 39.5146 9.59369 39.4552 9.51287C39.3715 9.41054 39.268 9.32489 39.1503 9.26073C39.0118 9.18467 38.8668 9.12006 38.7169 9.06758L37.8977 8.77901C37.4379 8.61419 36.9781 8.454 36.5136 8.29729C36.2129 8.19435 35.9578 8.10356 35.7363 8.03705C35.6941 8.02581 35.6523 8.01347 35.6109 8.00004C35.3432 7.92139 35.1547 7.88843 34.9956 7.88727C34.8893 7.88346 34.7834 7.90201 34.6853 7.94163C34.5828 7.98439 34.4908 8.04744 34.4152 8.12669C34.3777 8.16769 34.3425 8.21055 34.3096 8.25507C34.2456 8.34972 34.1929 8.45098 34.1523 8.55694C34.0001 8.9901 33.9242 9.44476 33.9279 9.90206C33.9309 10.315 33.9423 10.8453 34.1781 11.205C34.2352 11.2975 34.3114 11.3773 34.402 11.4392C34.5701 11.5508 34.7393 11.5658 34.9164 11.578C35.1805 11.5959 35.4356 11.534 35.6907 11.4768L38.1732 10.9245L38.175 10.9251ZM46.5119 7.1031C46.3079 6.69057 46.0336 6.31389 45.7004 5.98872C45.6573 5.94737 45.6112 5.9091 45.5624 5.87422C45.5172 5.8416 45.4703 5.8113 45.4219 5.78343C45.372 5.7571 45.3207 5.73336 45.2683 5.7123C45.1646 5.67304 45.0536 5.6553 44.9423 5.66025C44.8361 5.66603 44.7323 5.69495 44.638 5.74294C44.4958 5.81118 44.3415 5.92106 44.1363 6.10438C44.108 6.13156 44.0726 6.16221 44.0402 6.19113C43.8716 6.34437 43.6831 6.53348 43.4592 6.75323C43.1129 7.09038 42.7726 7.42926 42.4335 7.77103L41.8272 8.37709C41.7165 8.48763 41.6157 8.60699 41.5259 8.7339C41.449 8.84129 41.3946 8.9621 41.3657 9.08955C41.3494 9.18747 41.3519 9.28741 41.3729 9.38449L41.3759 9.39721C41.4238 9.59762 41.5505 9.7723 41.7294 9.88448C41.9083 9.99666 42.1254 10.0376 42.335 9.99864C42.3602 9.99521 42.3853 9.99058 42.41 9.98476L45.6404 9.26536C45.8955 9.20868 46.1536 9.15664 46.3822 9.02825C46.5359 8.94324 46.6818 8.85823 46.782 8.68706C46.8354 8.59277 46.8677 8.48876 46.8768 8.38172C46.9266 7.95725 46.6968 7.47552 46.5119 7.1031ZM40.7289 8.41179C40.9629 8.12842 40.9629 7.70626 40.9833 7.36044C41.0542 6.20674 41.128 5.05304 41.1874 3.89875C41.2096 3.46156 41.2582 3.03015 41.2312 2.58949C41.209 2.22632 41.2066 1.80879 40.9683 1.51038C40.5482 0.984134 39.6515 1.02751 39.0399 1.10962C38.8512 1.13474 38.6639 1.1687 38.4787 1.21141C38.2926 1.2542 38.1077 1.30104 37.9277 1.35714C37.3407 1.54219 36.5154 1.88223 36.3761 2.53397C36.2969 2.90235 36.4842 3.27882 36.6282 3.61539C36.8041 4.02251 37.0436 4.38973 37.262 4.77314C37.84 5.78574 38.4282 6.79256 39.0146 7.79995C39.1905 8.10066 39.3808 8.48118 39.7199 8.63732C39.7427 8.64658 39.7655 8.65467 39.7889 8.66219C39.9408 8.71771 40.107 8.72812 40.2649 8.69284L40.2931 8.68706C40.4396 8.64831 40.5716 8.5714 40.6754 8.46557C40.6946 8.44822 40.7114 8.43087 40.7289 8.41179ZM40.4486 11.5005C40.3572 11.3767 40.2275 11.2838 40.0781 11.2353C39.9287 11.1868 39.7672 11.1851 39.6167 11.2304C39.5813 11.2416 39.5467 11.2554 39.5134 11.2715C39.4618 11.2968 39.4126 11.3264 39.3664 11.3599C39.2342 11.4603 39.1162 11.5767 39.0152 11.7063C38.9894 11.7382 38.9654 11.7804 38.9342 11.8081L38.4144 12.4963C38.1203 12.8826 37.8292 13.2695 37.5417 13.6622C37.3533 13.916 37.1912 14.1306 37.0622 14.3197C37.0382 14.3555 37.0129 14.3949 36.9901 14.4272C36.8359 14.6562 36.7489 14.824 36.7038 14.9732C36.6702 15.0723 36.6596 15.1773 36.6726 15.2808C36.687 15.3884 36.7248 15.4919 36.7831 15.585C36.8143 15.6313 36.8479 15.6764 36.8839 15.7197C36.9617 15.806 37.0493 15.8836 37.145 15.9511C37.5039 16.1916 37.8965 16.3645 38.3094 16.4981C38.6533 16.608 39.0104 16.6739 39.3718 16.6936C39.4336 16.6965 39.4954 16.6953 39.5566 16.6901C39.6134 16.685 39.6699 16.6773 39.7259 16.667C39.7819 16.6544 39.8372 16.639 39.8916 16.6207C39.9972 16.5826 40.0933 16.5235 40.1737 16.4472C40.2499 16.3738 40.3087 16.2853 40.3453 16.1876C40.4053 16.043 40.445 15.8603 40.4714 15.5885C40.4732 15.5497 40.4792 15.5035 40.4834 15.4612C40.5038 15.2357 40.5134 14.9697 40.5278 14.6586C40.5536 14.1791 40.5734 13.7021 40.589 13.2238L40.6226 12.3725C40.6304 12.1771 40.6238 11.9596 40.5674 11.7648C40.5426 11.6711 40.5025 11.5819 40.4486 11.5005ZM46.3144 12.8323C46.2064 12.7172 46.0527 12.6033 45.8102 12.4622C45.7754 12.4431 45.734 12.4182 45.6962 12.3963C45.4945 12.2789 45.2514 12.1563 44.9675 12.0076C44.5312 11.7763 44.0948 11.5519 43.6537 11.3287L42.8752 10.9309C42.835 10.9193 42.7942 10.8915 42.7558 10.8736C42.6061 10.7999 42.4471 10.7453 42.2828 10.7111C42.2262 10.7006 42.1688 10.6948 42.1111 10.6938C42.0738 10.6936 42.0365 10.6957 41.9995 10.7001C41.8437 10.7233 41.6994 10.7933 41.5873 10.9002C41.4752 11.007 41.401 11.1453 41.3753 11.2952C41.3639 11.3906 41.3675 11.4872 41.3867 11.5809C41.4245 11.7809 41.5169 11.9781 41.613 12.1511L42.0283 12.9023C42.26 13.3256 42.4941 13.7466 42.7342 14.1664C42.889 14.44 43.0181 14.6742 43.1387 14.8685C43.1615 14.9049 43.1873 14.9442 43.2071 14.9784C43.3542 15.2114 43.4718 15.3583 43.5913 15.4641C43.6708 15.5379 43.7663 15.5937 43.8709 15.6277C43.9755 15.6617 44.0866 15.673 44.1963 15.6607C44.2534 15.654 44.3101 15.6444 44.3661 15.6318C44.481 15.6022 44.5919 15.5601 44.6969 15.5063C45.0128 15.3357 45.304 15.1257 45.563 14.8818C45.8739 14.5868 46.1488 14.2653 46.3624 13.8975C46.3924 13.8455 46.4177 13.7917 46.4393 13.7356C46.4594 13.6842 46.4768 13.6319 46.4915 13.5789C46.5041 13.5245 46.5137 13.4702 46.5203 13.4152C46.5311 13.3072 46.5182 13.1983 46.4825 13.0954C46.4472 12.9967 46.3899 12.9067 46.3144 12.8317V12.8323Z" fill="#BE2418"/>
<path fill-rule="evenodd" clip-rule="evenodd" d="M19.5057 5.52802C19.5057 4.90924 20.0285 4.40381 20.6599 4.40381C21.2823 4.40381 21.7877 4.90924 21.8147 5.53727V14.3124C21.8147 14.9311 21.2913 15.4366 20.6599 15.4366C20.5073 15.4365 20.3562 15.4073 20.2154 15.3506C20.0745 15.2939 19.9468 15.2109 19.8394 15.1064C19.7321 15.0019 19.6473 14.8779 19.5901 14.7416C19.5328 14.6053 19.5041 14.4594 19.5057 14.3124V5.52802ZM18.4319 10.9484C18.4229 11.1225 18.3779 11.4452 18.1438 11.6805C17.8911 11.9332 17.5484 11.994 17.3497 11.994C16.5244 11.9986 15.6991 12.0009 14.8738 12.0026C14.0486 12.005 13.2233 12.0073 12.398 12.0113C12.47 12.2293 12.6141 12.5607 12.9388 12.8655C13.1368 13.0488 13.3265 13.1529 13.4081 13.1968C13.5072 13.2575 13.8499 13.4322 14.2736 13.4322C14.725 13.4322 15.1217 13.2922 15.5101 13.1008L15.5419 13.0846C15.812 12.9499 16.0899 12.8111 16.3846 12.7608C16.6727 12.7174 16.98 12.7695 17.2051 12.9615C17.4758 13.1881 17.5844 13.5189 17.4848 13.859C17.3677 14.2424 17.034 14.5738 16.6823 14.7738C16.481 14.8873 16.2697 14.9835 16.0509 15.0613C15.4926 15.2521 14.9023 15.341 14.3103 15.3232C14.1662 15.3232 14.0125 15.3232 13.8589 15.3059C13.6968 15.2885 13.5348 15.2533 13.3811 15.2186C13.132 15.1665 12.8898 15.0875 12.6591 14.9832C12.4282 14.8846 12.2078 14.7649 12.0006 14.6258C11.794 14.4827 11.601 14.3223 11.4238 14.1464C11.2476 13.9683 11.0876 13.776 10.9455 13.5716C10.4587 12.8568 10.233 11.9766 10.278 11.1225C10.314 10.2863 10.6027 9.44946 11.1261 8.76996C11.1825 8.68437 11.248 8.61208 11.3098 8.54384C11.3368 8.51377 11.3632 8.48485 11.3878 8.45594C12.0336 7.6949 12.8968 7.45433 13.2527 7.35486L13.2725 7.34908C13.9949 7.15145 14.7601 7.15145 15.4825 7.34908C15.6541 7.39303 16.6193 7.68044 17.3677 8.45594C17.4037 8.49064 17.5034 8.60398 17.6294 8.76996C17.9496 9.19 18.1847 9.66437 18.3227 10.1683L18.3239 10.1729C18.3779 10.3643 18.4319 10.6263 18.4319 10.9484ZM13.1374 9.51075C12.7813 9.78981 12.5334 10.1766 12.434 10.6084H16.3666C16.2605 10.177 16.0101 9.7911 15.6541 9.51018C15.2955 9.23311 14.8509 9.0798 14.3913 9.07472C13.9341 9.07909 13.4919 9.23259 13.1368 9.51018L13.1374 9.51075ZM28.0923 7.20103C27.0641 7.20103 26.126 7.64575 25.4586 8.3692V8.34259C25.4452 8.05207 25.3139 7.77824 25.0929 7.58014C24.8719 7.38204 24.579 7.27553 24.2773 7.28357C23.9756 7.29161 23.6892 7.41356 23.4799 7.62313C23.2707 7.83269 23.1553 8.1131 23.1586 8.40389V16.7782C23.1579 16.9247 23.1872 17.0698 23.245 17.2053C23.3027 17.3407 23.3877 17.4638 23.495 17.5675C23.6024 17.6712 23.7299 17.7534 23.8704 17.8094C24.0108 17.8654 24.1614 17.8941 24.3134 17.8938C24.4653 17.894 24.6158 17.8653 24.7562 17.8092C24.8966 17.7532 25.0241 17.671 25.1313 17.5673C25.2386 17.4636 25.3235 17.3406 25.3812 17.2051C25.4389 17.0697 25.4683 16.9246 25.4676 16.7782V14.1637C26.135 14.8785 27.0641 15.3319 28.1013 15.3319C30.1672 15.3319 31.8448 13.5276 31.8448 11.2792C31.8358 9.03135 30.1582 7.20103 28.0923 7.20103ZM27.5875 13.5103C26.4147 13.5103 25.4586 12.5254 25.4586 11.2971C25.4586 10.0596 26.4057 9.07472 27.5875 9.07472C28.7597 9.07472 29.7159 10.0596 29.7159 11.2971C29.7069 12.5254 28.7597 13.5103 27.5875 13.5103ZM8.54642 11.8633L8.16769 12.6654C7.99603 13.0135 7.82437 13.3709 7.66231 13.7283L7.50565 14.0637C6.7842 15.6089 5.9289 17.4433 4.06344 17.8325C3.16132 18.0245 1.79944 17.7631 1.29407 16.9436C0.789287 16.1161 1.53775 15.1659 2.50289 15.3839C2.65534 15.4163 2.8048 15.488 2.95605 15.5609C3.20754 15.6823 3.46263 15.8044 3.73873 15.75C4.00042 15.7066 4.16248 15.5233 4.37015 15.2879C4.65825 14.9658 4.78489 14.6258 4.83891 14.4251L4.82571 14.3951C4.82153 14.3847 4.81692 14.3744 4.8119 14.3644C4.57722 13.9422 4.37195 13.5652 4.20089 13.25C4.10472 13.0721 4.00769 12.8945 3.90979 12.7174L3.51665 11.998C3.22855 11.4718 3.18053 11.385 3.05328 11.1577C2.77277 10.6476 2.47795 10.1449 2.16917 9.65012C1.83546 9.10942 1.49274 8.50856 1.77243 7.87186C1.87756 7.62534 2.07497 7.42588 2.32554 7.31298C2.57611 7.20009 2.86156 7.18201 3.12531 7.26233C3.70571 7.43177 3.96321 7.96439 4.20329 8.46172C4.24711 8.55194 4.28972 8.641 4.33414 8.72601C4.72187 9.4668 5.10061 10.2076 5.47934 10.9484C5.51295 11.0218 5.56337 11.1219 5.62579 11.2445C5.68101 11.3532 5.74523 11.4799 5.81306 11.6192L5.91329 11.8205C5.95231 11.8991 5.98652 11.9662 6.01173 12.02C6.18759 11.5978 6.36585 11.1774 6.54351 10.7564C6.72178 10.336 6.90004 9.91556 7.0759 9.49283C7.0807 9.4697 7.12272 9.37948 7.18634 9.24358C7.23976 9.1285 7.30818 8.98103 7.38261 8.81333L7.45884 8.63579C7.69292 8.08641 7.97502 7.42541 8.60044 7.24498C8.82242 7.18292 9.05896 7.18899 9.2772 7.26236C9.49544 7.33573 9.68455 7.47276 9.81827 7.65442C9.95332 7.83716 10.0073 8.0465 10.0163 8.25585C10.0235 8.71849 9.79186 9.21467 9.59259 9.64029C9.54457 9.74439 9.49776 9.84385 9.45754 9.93754L9.43353 9.98843C9.37831 10.1081 9.22826 10.432 8.97017 10.9658C8.87714 11.1566 8.78771 11.3486 8.69707 11.5423L8.54642 11.8633Z" fill="black"/>
</g>
<rect y="20" width="8.81633" height="8.81633" rx="1" fill="#BE2418"/>
<path d="M4.40806 20.9795L5.17783 23.3486H7.66883L5.65357 24.8128L6.42333 27.1818L4.40806 25.7177L2.3928 27.1818L3.16256 24.8128L1.1473 23.3486H3.6383L4.40806 20.9795Z" fill="white"/>
<rect x="9.7959" y="20" width="8.81633" height="8.81633" rx="1" fill="#BE2418"/>
<path d="M14.204 20.9795L14.9737 23.3486H17.4647L15.4495 24.8128L16.2192 27.1818L14.204 25.7177L12.1887 27.1818L12.9585 24.8128L10.9432 23.3486H13.4342L14.204 20.9795Z" fill="white"/>
<rect x="39.1836" y="20" width="8.81633" height="8.81633" rx="1" fill="#BE2418"/>
<path d="M43.5917 20.9795L44.3614 23.3486H46.8524L44.8372 24.8128L45.6069 27.1818L43.5917 25.7177L41.5764 27.1818L42.3462 24.8128L40.3309 23.3486H42.8219L43.5917 20.9795Z" fill="white"/>
<rect x="29.3877" y="20" width="8.81633" height="8.81633" rx="1" fill="#BE2418"/>
<path d="M33.7958 20.9795L34.5655 23.3486H37.0565L35.0413 24.8128L35.811 27.1818L33.7958 25.7177L31.7805 27.1818L32.5503 24.8128L30.535 23.3486H33.026L33.7958 20.9795Z" fill="white"/>
<rect x="19.5918" y="20" width="8.81633" height="8.81633" rx="1" fill="#BE2418"/>
<path d="M23.9999 20.9795L24.7696 23.3486H27.2606L25.2454 24.8128L26.0151 27.1818L23.9999 25.7177L21.9846 27.1818L22.7544 24.8128L20.7391 23.3486H23.2301L23.9999 20.9795Z" fill="white"/>
<defs>
<clipPath id="clip0_94_2">
<rect width="48" height="19" fill="white"/>
</clipPath>
</defs>
</svg>
