<svg width="803" height="349" viewBox="0 0 803 349" fill="none" xmlns="http://www.w3.org/2000/svg">
<path d="M111.206 256L63.2801 184.577V256H11.6324V91.2855H63.2801V160.614L110.508 91.2855H168.902L112.136 170.153L172.625 256H111.206ZM166.316 190.393C166.316 176.59 168.642 164.647 173.295 154.566C178.103 144.329 184.617 136.574 192.838 131.301C201.058 125.872 210.286 123.158 220.523 123.158C229.053 123.158 236.42 124.942 242.624 128.509C248.828 131.921 253.559 136.652 256.816 142.701V124.787H308.231V256H256.816V238.086C253.559 244.135 248.828 248.943 242.624 252.51C236.42 255.922 229.053 257.629 220.523 257.629C210.286 257.629 201.058 254.992 192.838 249.719C184.617 244.29 178.103 236.535 173.295 226.454C168.642 216.217 166.316 204.197 166.316 190.393ZM256.816 190.393C256.816 183.414 255.032 177.986 251.465 174.108C247.898 170.231 243.322 168.292 237.739 168.292C232.155 168.292 227.58 170.231 224.012 174.108C220.445 177.986 218.661 183.414 218.661 190.393C218.661 197.373 220.445 202.801 224.012 206.679C227.58 210.556 232.155 212.495 237.739 212.495C243.322 212.495 247.898 210.556 251.465 206.679C255.032 202.801 256.816 197.373 256.816 190.393ZM409.36 123.856C424.404 123.856 436.114 128.897 444.49 138.978C453.02 149.06 457.285 162.708 457.285 179.924V256H405.87V186.438C405.87 180.234 404.164 175.349 400.752 171.782C397.495 168.059 393.074 166.198 387.491 166.198C381.752 166.198 377.254 168.059 373.997 171.782C370.74 175.349 369.112 180.234 369.112 186.438V256H317.464V83.8408H369.112V144.794C373.144 138.591 378.495 133.55 385.164 129.672C391.989 125.795 400.054 123.856 409.36 123.856ZM458.743 190.393C458.743 176.59 461.069 164.647 465.722 154.566C470.53 144.329 477.044 136.574 485.265 131.301C493.485 125.872 502.713 123.158 512.95 123.158C521.48 123.158 528.77 124.942 534.819 128.509C541.023 131.921 545.753 136.652 549.01 142.701V83.8408H600.658V256H549.01V238.086C545.753 244.135 541.023 248.943 534.819 252.51C528.77 255.922 521.48 257.629 512.95 257.629C502.713 257.629 493.485 254.992 485.265 249.719C477.044 244.29 470.53 236.535 465.722 226.454C461.069 216.217 458.743 204.197 458.743 190.393ZM549.243 190.393C549.243 183.414 547.459 177.986 543.892 174.108C540.325 170.231 535.749 168.292 530.166 168.292C524.582 168.292 520.007 170.231 516.439 174.108C512.872 177.986 511.089 183.414 511.089 190.393C511.089 197.373 512.872 202.801 516.439 206.679C520.007 210.556 524.582 212.495 530.166 212.495C535.749 212.495 540.325 210.556 543.892 206.679C547.459 202.801 549.243 197.373 549.243 190.393ZM736.917 189.23C736.917 192.797 736.684 196.21 736.219 199.467H653.164C653.939 210.789 658.67 216.45 667.355 216.45C672.939 216.45 676.971 213.891 679.453 208.773H734.125C732.264 218.078 728.309 226.454 722.26 233.898C716.366 241.188 708.844 247.004 699.693 251.347C690.697 255.535 680.771 257.629 669.914 257.629C656.886 257.629 645.254 254.914 635.017 249.486C624.936 244.057 617.026 236.303 611.287 226.221C605.703 215.985 602.912 204.042 602.912 190.393C602.912 176.745 605.703 164.88 611.287 154.798C617.026 144.562 624.936 136.729 635.017 131.301C645.254 125.872 656.886 123.158 669.914 123.158C682.942 123.158 694.497 125.872 704.579 131.301C714.815 136.574 722.725 144.174 728.309 154.1C734.047 164.027 736.917 175.737 736.917 189.23ZM684.571 176.9C684.571 172.557 683.175 169.3 680.383 167.129C677.592 164.802 674.102 163.639 669.914 163.639C660.763 163.639 655.412 168.059 653.862 176.9H684.571ZM790.94 83.8408V256H739.292V83.8408H790.94Z" fill="white"/>
<path d="M37.1284 275.12V278.648H28.0683V308.356H23.729V278.648H14.6213V275.12H37.1284ZM51.1007 286.469C51.8637 284.975 52.9445 283.814 54.3433 282.988C55.7738 282.161 57.5063 281.748 59.5409 281.748V286.23H58.3965C53.5326 286.23 51.1007 288.869 51.1007 294.146V308.356H46.7614V282.225H51.1007V286.469ZM67.2203 295.195C67.2203 292.525 67.7608 290.188 68.8416 288.185C69.9225 286.151 71.4007 284.577 73.2763 283.465C75.1837 282.352 77.2977 281.796 79.6183 281.796C81.9072 281.796 83.894 282.288 85.5789 283.274C87.2638 284.259 88.5194 285.499 89.346 286.993V282.225H93.733V308.356H89.346V303.492C88.4877 305.018 87.2002 306.29 85.4835 307.307C83.7987 308.292 81.8277 308.785 79.5706 308.785C77.25 308.785 75.1519 308.213 73.2763 307.068C71.4007 305.924 69.9225 304.319 68.8416 302.252C67.7608 300.186 67.2203 297.834 67.2203 295.195ZM89.346 295.243C89.346 293.272 88.9486 291.555 88.1539 290.093C87.3591 288.63 86.2783 287.518 84.9113 286.755C83.5761 285.96 82.0979 285.563 80.4766 285.563C78.8554 285.563 77.3771 285.944 76.042 286.707C74.7068 287.47 73.6419 288.583 72.8471 290.045C72.0524 291.507 71.655 293.224 71.655 295.195C71.655 297.198 72.0524 298.946 72.8471 300.44C73.6419 301.903 74.7068 303.031 76.042 303.826C77.3771 304.589 78.8554 304.97 80.4766 304.97C82.0979 304.97 83.5761 304.589 84.9113 303.826C86.2783 303.031 87.3591 301.903 88.1539 300.44C88.9486 298.946 89.346 297.214 89.346 295.243ZM118.089 281.748C121.268 281.748 123.843 282.718 125.814 284.657C127.785 286.564 128.771 289.33 128.771 292.954V308.356H124.479V293.574C124.479 290.967 123.827 288.98 122.524 287.613C121.221 286.214 119.44 285.515 117.183 285.515C114.894 285.515 113.067 286.23 111.7 287.661C110.364 289.091 109.697 291.174 109.697 293.908V308.356H105.358V282.225H109.697V285.944C110.555 284.609 111.716 283.576 113.178 282.845C114.672 282.114 116.309 281.748 118.089 281.748ZM149.401 308.785C147.399 308.785 145.602 308.451 144.013 307.784C142.423 307.084 141.168 306.131 140.246 304.923C139.324 303.683 138.815 302.268 138.72 300.679H143.202C143.33 301.982 143.934 303.047 145.014 303.874C146.127 304.7 147.573 305.113 149.354 305.113C151.007 305.113 152.31 304.748 153.264 304.017C154.217 303.285 154.694 302.364 154.694 301.251C154.694 300.107 154.186 299.264 153.168 298.724C152.151 298.151 150.578 297.595 148.448 297.055C146.508 296.546 144.919 296.037 143.679 295.529C142.471 294.988 141.422 294.21 140.532 293.192C139.674 292.143 139.245 290.776 139.245 289.091C139.245 287.756 139.642 286.532 140.437 285.42C141.231 284.307 142.36 283.433 143.822 282.797C145.285 282.129 146.954 281.796 148.829 281.796C151.722 281.796 154.059 282.527 155.839 283.989C157.619 285.451 158.573 287.454 158.7 289.997H154.361C154.265 288.63 153.709 287.534 152.692 286.707C151.706 285.881 150.371 285.467 148.686 285.467C147.128 285.467 145.889 285.801 144.967 286.469C144.045 287.136 143.584 288.011 143.584 289.091C143.584 289.95 143.854 290.665 144.394 291.237C144.967 291.778 145.666 292.223 146.493 292.572C147.351 292.89 148.527 293.256 150.021 293.669C151.897 294.178 153.423 294.686 154.599 295.195C155.775 295.672 156.777 296.403 157.603 297.389C158.461 298.374 158.906 299.661 158.938 301.251C158.938 302.681 158.541 303.969 157.746 305.113C156.951 306.258 155.823 307.164 154.361 307.831C152.93 308.467 151.277 308.785 149.401 308.785ZM179.989 285.801H174.505V308.356H170.166V285.801H166.781V282.225H170.166V280.365C170.166 277.44 170.913 275.311 172.407 273.975C173.933 272.608 176.365 271.925 179.703 271.925V275.549C177.796 275.549 176.445 275.93 175.65 276.693C174.887 277.425 174.505 278.648 174.505 280.365V282.225H179.989V285.801ZM200.737 308.785C198.289 308.785 196.064 308.229 194.061 307.116C192.09 306.004 190.532 304.43 189.388 302.395C188.275 300.329 187.719 297.945 187.719 295.243C187.719 292.572 188.291 290.22 189.436 288.185C190.612 286.119 192.201 284.545 194.204 283.465C196.207 282.352 198.448 281.796 200.928 281.796C203.407 281.796 205.648 282.352 207.651 283.465C209.654 284.545 211.227 286.103 212.372 288.138C213.548 290.172 214.136 292.541 214.136 295.243C214.136 297.945 213.532 300.329 212.324 302.395C211.148 304.43 209.543 306.004 207.508 307.116C205.473 308.229 203.216 308.785 200.737 308.785ZM200.737 304.97C202.294 304.97 203.757 304.605 205.124 303.874C206.491 303.142 207.587 302.046 208.414 300.583C209.272 299.121 209.701 297.341 209.701 295.243C209.701 293.145 209.288 291.364 208.462 289.902C207.635 288.44 206.554 287.359 205.219 286.659C203.884 285.928 202.438 285.563 200.88 285.563C199.29 285.563 197.828 285.928 196.493 286.659C195.189 287.359 194.14 288.44 193.346 289.902C192.551 291.364 192.154 293.145 192.154 295.243C192.154 297.373 192.535 299.169 193.298 300.631C194.093 302.093 195.142 303.19 196.445 303.921C197.749 304.621 199.179 304.97 200.737 304.97ZM228.472 286.469C229.235 284.975 230.316 283.814 231.715 282.988C233.146 282.161 234.878 281.748 236.913 281.748V286.23H235.768C230.904 286.23 228.472 288.869 228.472 294.146V308.356H224.133V282.225H228.472V286.469ZM277.637 281.748C279.672 281.748 281.484 282.177 283.073 283.035C284.663 283.862 285.919 285.118 286.841 286.803C287.762 288.487 288.223 290.538 288.223 292.954V308.356H283.932V293.574C283.932 290.967 283.28 288.98 281.977 287.613C280.705 286.214 278.973 285.515 276.779 285.515C274.522 285.515 272.726 286.246 271.391 287.709C270.056 289.139 269.388 291.221 269.388 293.955V308.356H265.096V293.574C265.096 290.967 264.445 288.98 263.141 287.613C261.87 286.214 260.137 285.515 257.944 285.515C255.687 285.515 253.891 286.246 252.555 287.709C251.22 289.139 250.553 291.221 250.553 293.955V308.356H246.213V282.225H250.553V285.992C251.411 284.625 252.555 283.576 253.986 282.845C255.448 282.114 257.054 281.748 258.802 281.748C260.996 281.748 262.935 282.241 264.62 283.226C266.304 284.212 267.56 285.658 268.387 287.565C269.118 285.722 270.326 284.291 272.011 283.274C273.696 282.257 275.571 281.748 277.637 281.748ZM298.012 295.195C298.012 292.525 298.552 290.188 299.633 288.185C300.714 286.151 302.192 284.577 304.068 283.465C305.975 282.352 308.089 281.796 310.41 281.796C312.699 281.796 314.686 282.288 316.37 283.274C318.055 284.259 319.311 285.499 320.137 286.993V282.225H324.524V308.356H320.137V303.492C319.279 305.018 317.992 306.29 316.275 307.307C314.59 308.292 312.619 308.785 310.362 308.785C308.041 308.785 305.943 308.213 304.068 307.068C302.192 305.924 300.714 304.319 299.633 302.252C298.552 300.186 298.012 297.834 298.012 295.195ZM320.137 295.243C320.137 293.272 319.74 291.555 318.945 290.093C318.151 288.63 317.07 287.518 315.703 286.755C314.368 285.96 312.889 285.563 311.268 285.563C309.647 285.563 308.169 285.944 306.833 286.707C305.498 287.47 304.433 288.583 303.639 290.045C302.844 291.507 302.446 293.224 302.446 295.195C302.446 297.198 302.844 298.946 303.639 300.44C304.433 301.903 305.498 303.031 306.833 303.826C308.169 304.589 309.647 304.97 311.268 304.97C312.889 304.97 314.368 304.589 315.703 303.826C317.07 303.031 318.151 301.903 318.945 300.44C319.74 298.946 320.137 297.214 320.137 295.243ZM341.442 285.801V301.203C341.442 302.475 341.712 303.381 342.253 303.921C342.793 304.43 343.731 304.684 345.066 304.684H348.261V308.356H344.351C341.935 308.356 340.123 307.8 338.915 306.687C337.707 305.574 337.103 303.746 337.103 301.203V285.801H333.717V282.225H337.103V275.644H341.442V282.225H348.261V285.801H341.442ZM360.051 277.981C359.225 277.981 358.525 277.695 357.953 277.123C357.381 276.55 357.095 275.851 357.095 275.024C357.095 274.198 357.381 273.499 357.953 272.926C358.525 272.354 359.225 272.068 360.051 272.068C360.846 272.068 361.514 272.354 362.054 272.926C362.626 273.499 362.912 274.198 362.912 275.024C362.912 275.851 362.626 276.55 362.054 277.123C361.514 277.695 360.846 277.981 360.051 277.981ZM362.149 282.225V308.356H357.81V282.225H362.149ZM385.233 308.785C382.785 308.785 380.56 308.229 378.557 307.116C376.586 306.004 375.029 304.43 373.884 302.395C372.772 300.329 372.215 297.945 372.215 295.243C372.215 292.572 372.788 290.22 373.932 288.185C375.108 286.119 376.698 284.545 378.7 283.465C380.703 282.352 382.944 281.796 385.424 281.796C387.904 281.796 390.145 282.352 392.147 283.465C394.15 284.545 395.724 286.103 396.868 288.138C398.044 290.172 398.633 292.541 398.633 295.243C398.633 297.945 398.029 300.329 396.821 302.395C395.644 304.43 394.039 306.004 392.004 307.116C389.97 308.229 387.713 308.785 385.233 308.785ZM385.233 304.97C386.791 304.97 388.253 304.605 389.62 303.874C390.987 303.142 392.084 302.046 392.91 300.583C393.769 299.121 394.198 297.341 394.198 295.243C394.198 293.145 393.785 291.364 392.958 289.902C392.132 288.44 391.051 287.359 389.716 286.659C388.38 285.928 386.934 285.563 385.376 285.563C383.787 285.563 382.324 285.928 380.989 286.659C379.686 287.359 378.637 288.44 377.842 289.902C377.047 291.364 376.65 293.145 376.65 295.243C376.65 297.373 377.031 299.169 377.794 300.631C378.589 302.093 379.638 303.19 380.942 303.921C382.245 304.621 383.676 304.97 385.233 304.97ZM421.361 281.748C424.54 281.748 427.115 282.718 429.086 284.657C431.057 286.564 432.043 289.33 432.043 292.954V308.356H427.751V293.574C427.751 290.967 427.099 288.98 425.796 287.613C424.493 286.214 422.712 285.515 420.455 285.515C418.166 285.515 416.339 286.23 414.972 287.661C413.636 289.091 412.969 291.174 412.969 293.908V308.356H408.63V282.225H412.969V285.944C413.827 284.609 414.988 283.576 416.45 282.845C417.944 282.114 419.581 281.748 421.361 281.748ZM469.678 308.785C467.675 308.785 465.879 308.451 464.289 307.784C462.7 307.084 461.444 306.131 460.522 304.923C459.6 303.683 459.092 302.268 458.996 300.679H463.479C463.606 301.982 464.21 303.047 465.291 303.874C466.403 304.7 467.85 305.113 469.63 305.113C471.283 305.113 472.586 304.748 473.54 304.017C474.494 303.285 474.971 302.364 474.971 301.251C474.971 300.107 474.462 299.264 473.445 298.724C472.428 298.151 470.854 297.595 468.724 297.055C466.785 296.546 465.195 296.037 463.956 295.529C462.748 294.988 461.699 294.21 460.808 293.192C459.95 292.143 459.521 290.776 459.521 289.091C459.521 287.756 459.918 286.532 460.713 285.42C461.508 284.307 462.636 283.433 464.099 282.797C465.561 282.129 467.23 281.796 469.106 281.796C471.998 281.796 474.335 282.527 476.115 283.989C477.895 285.451 478.849 287.454 478.976 289.997H474.637C474.542 288.63 473.985 287.534 472.968 286.707C471.982 285.881 470.647 285.467 468.962 285.467C467.405 285.467 466.165 285.801 465.243 286.469C464.321 287.136 463.86 288.011 463.86 289.091C463.86 289.95 464.13 290.665 464.671 291.237C465.243 291.778 465.942 292.223 466.769 292.572C467.627 292.89 468.804 293.256 470.298 293.669C472.173 294.178 473.699 294.686 474.875 295.195C476.052 295.672 477.053 296.403 477.879 297.389C478.738 298.374 479.183 299.661 479.215 301.251C479.215 302.681 478.817 303.969 478.023 305.113C477.228 306.258 476.099 307.164 474.637 307.831C473.206 308.467 471.553 308.785 469.678 308.785ZM513.474 294.289C513.474 295.116 513.426 295.99 513.331 296.912H492.445C492.604 299.487 493.478 301.505 495.068 302.968C496.689 304.398 498.644 305.113 500.933 305.113C502.809 305.113 504.366 304.684 505.606 303.826C506.878 302.936 507.768 301.76 508.277 300.297H512.95C512.25 302.809 510.851 304.859 508.753 306.449C506.655 308.006 504.048 308.785 500.933 308.785C498.454 308.785 496.228 308.229 494.257 307.116C492.318 306.004 490.792 304.43 489.68 302.395C488.567 300.329 488.011 297.945 488.011 295.243C488.011 292.541 488.551 290.172 489.632 288.138C490.713 286.103 492.223 284.545 494.162 283.465C496.133 282.352 498.39 281.796 500.933 281.796C503.413 281.796 505.606 282.336 507.514 283.417C509.421 284.498 510.883 285.992 511.901 287.899C512.95 289.775 513.474 291.905 513.474 294.289ZM508.992 293.383C508.992 291.73 508.626 290.315 507.895 289.139C507.164 287.931 506.163 287.025 504.891 286.421C503.651 285.785 502.268 285.467 500.742 285.467C498.549 285.467 496.673 286.167 495.116 287.565C493.59 288.964 492.715 290.903 492.493 293.383H508.992ZM527.833 286.469C528.596 284.975 529.677 283.814 531.075 282.988C532.506 282.161 534.238 281.748 536.273 281.748V286.23H535.129C530.265 286.23 527.833 288.869 527.833 294.146V308.356H523.494V282.225H527.833V286.469ZM555.301 304.35L563.408 282.225H568.033L557.781 308.356H552.726L542.474 282.225H547.147L555.301 304.35ZM578.836 277.981C578.009 277.981 577.31 277.695 576.738 277.123C576.166 276.55 575.879 275.851 575.879 275.024C575.879 274.198 576.166 273.499 576.738 272.926C577.31 272.354 578.009 272.068 578.836 272.068C579.631 272.068 580.298 272.354 580.839 272.926C581.411 273.499 581.697 274.198 581.697 275.024C581.697 275.851 581.411 276.55 580.839 277.123C580.298 277.695 579.631 277.981 578.836 277.981ZM580.934 282.225V308.356H576.595V282.225H580.934ZM591 295.243C591 292.541 591.54 290.188 592.621 288.185C593.702 286.151 595.196 284.577 597.104 283.465C599.043 282.352 601.252 281.796 603.732 281.796C606.943 281.796 609.581 282.574 611.647 284.132C613.746 285.69 615.128 287.852 615.796 290.617H611.123C610.678 289.028 609.804 287.772 608.5 286.85C607.229 285.928 605.639 285.467 603.732 285.467C601.252 285.467 599.249 286.326 597.723 288.042C596.198 289.727 595.435 292.127 595.435 295.243C595.435 298.39 596.198 300.822 597.723 302.538C599.249 304.255 601.252 305.113 603.732 305.113C605.639 305.113 607.229 304.668 608.5 303.778C609.772 302.888 610.646 301.617 611.123 299.963H615.796C615.097 302.634 613.698 304.78 611.6 306.401C609.502 307.99 606.879 308.785 603.732 308.785C601.252 308.785 599.043 308.229 597.104 307.116C595.196 306.004 593.702 304.43 592.621 302.395C591.54 300.361 591 297.977 591 295.243ZM649.72 294.289C649.72 295.116 649.672 295.99 649.577 296.912H628.691C628.85 299.487 629.724 301.505 631.314 302.968C632.935 304.398 634.89 305.113 637.179 305.113C639.054 305.113 640.612 304.684 641.852 303.826C643.123 302.936 644.014 301.76 644.522 300.297H649.195C648.496 302.809 647.097 304.859 644.999 306.449C642.901 308.006 640.294 308.785 637.179 308.785C634.699 308.785 632.474 308.229 630.503 307.116C628.564 306.004 627.038 304.43 625.925 302.395C624.813 300.329 624.256 297.945 624.256 295.243C624.256 292.541 624.797 290.172 625.878 288.138C626.958 286.103 628.468 284.545 630.408 283.465C632.379 282.352 634.636 281.796 637.179 281.796C639.658 281.796 641.852 282.336 643.759 283.417C645.667 284.498 647.129 285.992 648.146 287.899C649.195 289.775 649.72 291.905 649.72 294.289ZM645.237 293.383C645.237 291.73 644.872 290.315 644.141 289.139C643.41 287.931 642.408 287.025 641.137 286.421C639.897 285.785 638.514 285.467 636.988 285.467C634.795 285.467 632.919 286.167 631.361 287.565C629.835 288.964 628.961 290.903 628.739 293.383H645.237ZM668.99 308.785C666.987 308.785 665.191 308.451 663.602 307.784C662.012 307.084 660.756 306.131 659.835 304.923C658.913 303.683 658.404 302.268 658.309 300.679H662.791C662.918 301.982 663.522 303.047 664.603 303.874C665.716 304.7 667.162 305.113 668.942 305.113C670.595 305.113 671.899 304.748 672.852 304.017C673.806 303.285 674.283 302.364 674.283 301.251C674.283 300.107 673.774 299.264 672.757 298.724C671.74 298.151 670.166 297.595 668.036 297.055C666.097 296.546 664.508 296.037 663.268 295.529C662.06 294.988 661.011 294.21 660.121 293.192C659.262 292.143 658.833 290.776 658.833 289.091C658.833 287.756 659.231 286.532 660.025 285.42C660.82 284.307 661.949 283.433 663.411 282.797C664.873 282.129 666.542 281.796 668.418 281.796C671.311 281.796 673.647 282.527 675.427 283.989C677.208 285.451 678.161 287.454 678.288 289.997H673.949C673.854 288.63 673.297 287.534 672.28 286.707C671.295 285.881 669.96 285.467 668.275 285.467C666.717 285.467 665.477 285.801 664.555 286.469C663.633 287.136 663.172 288.011 663.172 289.091C663.172 289.95 663.443 290.665 663.983 291.237C664.555 291.778 665.255 292.223 666.081 292.572C666.94 292.89 668.116 293.256 669.61 293.669C671.485 294.178 673.011 294.686 674.188 295.195C675.364 295.672 676.365 296.403 677.192 297.389C678.05 298.374 678.495 299.661 678.527 301.251C678.527 302.681 678.13 303.969 677.335 305.113C676.54 306.258 675.411 307.164 673.949 307.831C672.519 308.467 670.866 308.785 668.99 308.785ZM710.288 304.827H721.923V308.356H705.948V275.12H710.288V304.827ZM735.162 304.827H746.797V308.356H730.823V275.12H735.162V304.827ZM754.076 291.714C754.076 288.471 754.807 285.563 756.269 282.988C757.731 280.381 759.718 278.346 762.23 276.884C764.773 275.422 767.586 274.691 770.67 274.691C774.294 274.691 777.457 275.565 780.159 277.313C782.861 279.062 784.832 281.541 786.072 284.752H780.874C779.952 282.749 778.617 281.208 776.869 280.127C775.152 279.046 773.086 278.505 770.67 278.505C768.349 278.505 766.267 279.046 764.423 280.127C762.579 281.208 761.133 282.749 760.084 284.752C759.035 286.723 758.51 289.044 758.51 291.714C758.51 294.353 759.035 296.673 760.084 298.676C761.133 300.647 762.579 302.173 764.423 303.254C766.267 304.335 768.349 304.875 770.67 304.875C773.086 304.875 775.152 304.35 776.869 303.301C778.617 302.221 779.952 300.679 780.874 298.676H786.072C784.832 301.855 782.861 304.319 780.159 306.067C777.457 307.784 774.294 308.642 770.67 308.642C767.586 308.642 764.773 307.927 762.23 306.496C759.718 305.034 757.731 303.015 756.269 300.44C754.807 297.865 754.076 294.957 754.076 291.714Z" fill="white"/>
</svg>
